<mxfile host="app.diagrams.net" modified="2023-09-29T16:39:56.254Z" agent="Mozilla/5.0 (Windows NT 10.0; Win64; x64) AppleWebKit/537.36 (KHTML, like Gecko) Chrome/117.0.0.0 Safari/537.36" etag="F7pDZbDp9qQyhTKDV51G" version="22.0.0" type="github">
  <diagram id="R2lEEEUBdFMjLlhIrx00" name="Page-1">
    <mxGraphModel dx="574" dy="300" grid="1" gridSize="10" guides="1" tooltips="1" connect="1" arrows="1" fold="1" page="1" pageScale="1" pageWidth="850" pageHeight="1100" background="none" math="0" shadow="0" extFonts="Permanent Marker^https://fonts.googleapis.com/css?family=Permanent+Marker">
      <root>
        <mxCell id="0" />
        <mxCell id="1" parent="0" />
        <mxCell id="Ll3oK5ygTe_x3l-XsEvN-1" value="CLIENTES" style="rounded=0;whiteSpace=wrap;html=1;" vertex="1" parent="1">
          <mxGeometry x="80" y="40" width="120" height="60" as="geometry" />
        </mxCell>
        <mxCell id="Ll3oK5ygTe_x3l-XsEvN-2" value="PELÍCULAS" style="rounded=0;whiteSpace=wrap;html=1;" vertex="1" parent="1">
          <mxGeometry x="560" y="40" width="120" height="60" as="geometry" />
        </mxCell>
        <mxCell id="Ll3oK5ygTe_x3l-XsEvN-3" value="" style="rhombus;whiteSpace=wrap;html=1;fillColor=#999999;" vertex="1" parent="1">
          <mxGeometry x="340" y="30" width="80" height="80" as="geometry" />
        </mxCell>
        <mxCell id="Ll3oK5ygTe_x3l-XsEvN-5" value="" style="endArrow=none;html=1;rounded=0;entryX=1;entryY=0.5;entryDx=0;entryDy=0;exitX=0;exitY=0.5;exitDx=0;exitDy=0;" edge="1" parent="1" source="Ll3oK5ygTe_x3l-XsEvN-3" target="Ll3oK5ygTe_x3l-XsEvN-1">
          <mxGeometry width="50" height="50" relative="1" as="geometry">
            <mxPoint x="400" y="360" as="sourcePoint" />
            <mxPoint x="450" y="310" as="targetPoint" />
          </mxGeometry>
        </mxCell>
        <mxCell id="Ll3oK5ygTe_x3l-XsEvN-6" value="" style="endArrow=none;html=1;rounded=0;entryX=0;entryY=0.5;entryDx=0;entryDy=0;exitX=1;exitY=0.5;exitDx=0;exitDy=0;" edge="1" parent="1" source="Ll3oK5ygTe_x3l-XsEvN-3" target="Ll3oK5ygTe_x3l-XsEvN-2">
          <mxGeometry width="50" height="50" relative="1" as="geometry">
            <mxPoint x="430" y="70" as="sourcePoint" />
            <mxPoint x="470" y="250" as="targetPoint" />
          </mxGeometry>
        </mxCell>
        <mxCell id="Ll3oK5ygTe_x3l-XsEvN-7" value="alquilar" style="text;html=1;align=center;verticalAlign=middle;resizable=0;points=[];autosize=1;strokeColor=none;fillColor=none;" vertex="1" parent="1">
          <mxGeometry x="350" width="60" height="30" as="geometry" />
        </mxCell>
        <mxCell id="Ll3oK5ygTe_x3l-XsEvN-8" value="N:N" style="text;html=1;align=center;verticalAlign=middle;resizable=0;points=[];autosize=1;strokeColor=none;fillColor=none;" vertex="1" parent="1">
          <mxGeometry x="360" y="110" width="40" height="30" as="geometry" />
        </mxCell>
        <mxCell id="Ll3oK5ygTe_x3l-XsEvN-9" value="(0,n)" style="text;html=1;align=center;verticalAlign=middle;resizable=0;points=[];autosize=1;strokeColor=none;fillColor=none;" vertex="1" parent="1">
          <mxGeometry x="200" y="80" width="50" height="30" as="geometry" />
        </mxCell>
        <mxCell id="Ll3oK5ygTe_x3l-XsEvN-10" value="(0,n)" style="text;html=1;align=center;verticalAlign=middle;resizable=0;points=[];autosize=1;strokeColor=none;fillColor=none;" vertex="1" parent="1">
          <mxGeometry x="510" y="80" width="50" height="30" as="geometry" />
        </mxCell>
        <mxCell id="Ll3oK5ygTe_x3l-XsEvN-11" value="nombre" style="ellipse;whiteSpace=wrap;html=1;" vertex="1" parent="1">
          <mxGeometry x="50" y="140" width="60" height="40" as="geometry" />
        </mxCell>
        <mxCell id="Ll3oK5ygTe_x3l-XsEvN-30" style="edgeStyle=orthogonalEdgeStyle;rounded=0;orthogonalLoop=1;jettySize=auto;html=1;entryX=0.5;entryY=1;entryDx=0;entryDy=0;" edge="1" parent="1" source="Ll3oK5ygTe_x3l-XsEvN-12" target="Ll3oK5ygTe_x3l-XsEvN-1">
          <mxGeometry relative="1" as="geometry" />
        </mxCell>
        <mxCell id="Ll3oK5ygTe_x3l-XsEvN-12" value="dni" style="ellipse;whiteSpace=wrap;html=1;" vertex="1" parent="1">
          <mxGeometry x="110" y="180" width="60" height="40" as="geometry" />
        </mxCell>
        <mxCell id="Ll3oK5ygTe_x3l-XsEvN-13" value="nºsocio" style="ellipse;whiteSpace=wrap;html=1;" vertex="1" parent="1">
          <mxGeometry x="160" y="140" width="60" height="40" as="geometry" />
        </mxCell>
        <mxCell id="Ll3oK5ygTe_x3l-XsEvN-26" style="edgeStyle=orthogonalEdgeStyle;rounded=0;orthogonalLoop=1;jettySize=auto;html=1;" edge="1" parent="1" source="Ll3oK5ygTe_x3l-XsEvN-14">
          <mxGeometry relative="1" as="geometry">
            <mxPoint x="620" y="100" as="targetPoint" />
          </mxGeometry>
        </mxCell>
        <mxCell id="Ll3oK5ygTe_x3l-XsEvN-14" value="" style="ellipse;whiteSpace=wrap;html=1;" vertex="1" parent="1">
          <mxGeometry x="530" y="130" width="60" height="40" as="geometry" />
        </mxCell>
        <mxCell id="Ll3oK5ygTe_x3l-XsEvN-24" style="edgeStyle=orthogonalEdgeStyle;rounded=0;orthogonalLoop=1;jettySize=auto;html=1;entryX=0.5;entryY=1;entryDx=0;entryDy=0;" edge="1" parent="1" source="Ll3oK5ygTe_x3l-XsEvN-15" target="Ll3oK5ygTe_x3l-XsEvN-2">
          <mxGeometry relative="1" as="geometry" />
        </mxCell>
        <mxCell id="Ll3oK5ygTe_x3l-XsEvN-15" value="" style="ellipse;whiteSpace=wrap;html=1;" vertex="1" parent="1">
          <mxGeometry x="590" y="170" width="60" height="40" as="geometry" />
        </mxCell>
        <mxCell id="Ll3oK5ygTe_x3l-XsEvN-25" style="edgeStyle=orthogonalEdgeStyle;rounded=0;orthogonalLoop=1;jettySize=auto;html=1;" edge="1" parent="1" source="Ll3oK5ygTe_x3l-XsEvN-16">
          <mxGeometry relative="1" as="geometry">
            <mxPoint x="620" y="100" as="targetPoint" />
            <Array as="points">
              <mxPoint x="690" y="125" />
              <mxPoint x="620" y="125" />
            </Array>
          </mxGeometry>
        </mxCell>
        <mxCell id="Ll3oK5ygTe_x3l-XsEvN-16" value="" style="ellipse;whiteSpace=wrap;html=1;rotation=0;" vertex="1" parent="1">
          <mxGeometry x="660" y="150" width="60" height="40" as="geometry" />
        </mxCell>
        <mxCell id="Ll3oK5ygTe_x3l-XsEvN-31" style="edgeStyle=orthogonalEdgeStyle;rounded=0;orthogonalLoop=1;jettySize=auto;html=1;entryX=0.687;entryY=1.013;entryDx=0;entryDy=0;entryPerimeter=0;" edge="1" parent="1" source="Ll3oK5ygTe_x3l-XsEvN-13" target="Ll3oK5ygTe_x3l-XsEvN-1">
          <mxGeometry relative="1" as="geometry" />
        </mxCell>
        <mxCell id="Ll3oK5ygTe_x3l-XsEvN-32" style="edgeStyle=orthogonalEdgeStyle;rounded=0;orthogonalLoop=1;jettySize=auto;html=1;entryX=0.353;entryY=0.993;entryDx=0;entryDy=0;entryPerimeter=0;" edge="1" parent="1" source="Ll3oK5ygTe_x3l-XsEvN-11" target="Ll3oK5ygTe_x3l-XsEvN-1">
          <mxGeometry relative="1" as="geometry" />
        </mxCell>
      </root>
    </mxGraphModel>
  </diagram>
</mxfile>
